<?xml version="1.0" standalone="no"?>
<!DOCTYPE svg PUBLIC "-//W3C//DTD SVG 20010904//EN"
 "http://www.w3.org/TR/2001/REC-SVG-20010904/DTD/svg10.dtd">
<svg version="1.0" xmlns="http://www.w3.org/2000/svg"
 width="703.000000pt" height="166.000000pt" viewBox="0 0 703.000000 166.000000"
 preserveAspectRatio="xMidYMid meet">

<g transform="translate(0.000000,166.000000) scale(0.100000,-0.100000)"
fill="#000000" stroke="none">
<path d="M6639 1634 c-64 -19 -140 -90 -169 -156 -47 -106 -25 -229 55 -313
l32 -35 -44 0 c-63 0 -83 -13 -83 -55 0 -34 1 -35 40 -35 38 0 40 -1 40 -32 0
-18 14 -211 30 -428 16 -217 30 -398 30 -402 0 -5 -16 -8 -35 -8 l-35 0 0 -85
0 -85 230 0 230 0 0 85 0 85 -31 0 -31 0 6 58 c3 31 15 217 26 412 12 195 23
365 26 378 3 18 11 22 39 22 32 0 35 3 35 28 0 42 -28 62 -84 62 l-48 0 33 32
c79 80 103 220 55 323 -59 129 -208 192 -347 149z m248 -636 c-4 -24 -21 -209
-38 -411 l-33 -368 -85 3 -86 3 -37 375 c-20 206 -37 390 -37 408 l-1 32 161
0 161 0 -5 -42z"/>
<path d="M245 1455 c-5 -11 -17 -33 -28 -50 -11 -16 -14 -24 -7 -17 21 18 28
15 22 -13 -2 -14 -10 -25 -18 -25 -7 0 -15 -4 -19 -9 -3 -6 7 -6 27 0 41 11
38 12 38 -6 0 -23 -30 -51 -81 -78 -31 -17 -51 -36 -69 -70 -23 -43 -28 -47
-53 -41 -27 6 -27 5 -27 -46 l0 -51 27 15 c27 14 28 14 53 -32 19 -35 38 -54
78 -75 46 -25 51 -31 40 -44 -8 -10 -15 -58 -19 -120 -6 -110 -24 -154 -65
-162 -10 -2 -23 -9 -27 -17 -4 -8 -17 -14 -28 -14 -11 0 -21 -6 -23 -13 -22
-77 -31 -103 -38 -112 -4 -5 -8 -112 -8 -237 l0 -228 240 0 240 0 0 224 c0
179 -3 226 -14 235 -8 7 -17 28 -21 49 -9 51 -22 72 -45 72 -10 0 -20 4 -22 8
-1 5 -16 15 -33 23 -44 21 -58 60 -63 177 -3 56 -9 105 -13 108 -18 11 -8 23
26 34 39 13 105 84 105 113 0 13 5 17 15 13 8 -3 22 -9 30 -12 12 -5 15 4 15
46 0 42 -3 51 -15 46 -8 -3 -22 -9 -30 -12 -10 -4 -15 0 -15 10 0 25 -68 94
-105 107 -38 14 -45 30 -45 110 0 51 2 56 28 66 l27 11 -32 1 c-21 1 -33 7
-36 19 -3 15 -5 15 -12 -3z"/>
<path d="M1041 1422 c-17 -33 -19 -43 -7 -33 14 12 16 11 16 -8 0 -14 -9 -25
-25 -31 -14 -5 -25 -15 -25 -22 0 -9 3 -10 8 -2 10 16 60 26 67 14 9 -14 -35
-67 -62 -74 -36 -10 -80 -53 -97 -96 -16 -40 -16 -40 -41 -24 l-25 16 0 -57 0
-57 25 16 c24 16 25 15 41 -16 24 -48 63 -86 101 -99 29 -9 48 -39 24 -39 -4
0 -10 -46 -13 -103 -6 -119 -22 -160 -68 -175 -16 -6 -30 -15 -30 -21 0 -5
-10 -11 -21 -13 -24 -3 -27 -8 -55 -83 -16 -43 -19 -84 -22 -278 l-3 -227 244
0 243 0 -4 218 c-2 119 -7 226 -12 237 -4 11 -14 41 -21 67 -10 35 -20 50 -39
58 -102 43 -112 59 -121 191 -5 61 -11 120 -14 130 -5 14 4 22 38 37 44 20 78
57 92 100 4 15 12 21 21 18 8 -3 21 -9 29 -12 12 -5 15 4 15 46 0 42 -3 51
-15 46 -8 -3 -22 -9 -30 -12 -9 -4 -17 1 -21 12 -15 41 -59 87 -100 104 -43
19 -44 21 -46 67 -2 65 2 97 11 101 5 1 17 9 27 16 17 13 16 14 -9 9 -19 -4
-32 0 -40 10 -10 14 -15 9 -36 -31z"/>
<path d="M1851 1422 c-17 -33 -19 -43 -7 -33 14 12 16 11 16 -8 0 -14 -9 -25
-25 -31 -14 -5 -25 -15 -25 -22 0 -9 3 -10 8 -2 4 6 19 14 35 18 22 5 27 3 27
-13 0 -18 -52 -71 -70 -71 -20 0 -80 -63 -90 -96 -11 -34 -13 -35 -35 -20 -21
14 -24 14 -29 0 -8 -20 -8 -58 0 -79 6 -14 8 -14 31 0 23 15 24 15 38 -17 17
-42 61 -84 103 -99 28 -10 46 -39 24 -39 -5 0 -12 -47 -15 -104 -8 -122 -18
-149 -63 -171 -19 -9 -34 -20 -34 -25 0 -6 -8 -10 -19 -10 -25 0 -35 -15 -51
-73 -7 -26 -17 -50 -21 -53 -5 -3 -9 -108 -9 -235 l0 -229 243 0 242 0 -3 217
c-1 120 -6 227 -11 238 -24 57 -31 78 -31 94 0 11 -11 24 -27 30 -105 44 -115
59 -126 199 -6 64 -14 120 -20 123 -10 7 -2 13 58 44 34 17 69 60 89 110 2 6
9 5 17 -2 27 -26 39 -15 39 37 0 37 -4 50 -14 50 -8 0 -18 -4 -21 -10 -10 -15
-25 -12 -32 8 -13 38 -54 80 -97 101 -45 20 -46 23 -48 69 -3 69 0 96 10 100
5 1 18 9 28 16 17 13 16 14 -9 9 -19 -4 -32 0 -40 10 -10 14 -15 9 -36 -31z"/>
<path d="M3567 1377 c-13 -35 -7 -68 18 -92 l24 -25 -29 0 c-18 0 -30 -5 -30
-13 0 -7 -16 -19 -35 -26 -19 -7 -48 -28 -63 -47 -15 -19 -33 -34 -39 -34 -7
0 -13 -4 -13 -10 0 -5 -7 -10 -15 -10 -9 0 -15 -9 -15 -25 0 -16 6 -25 15 -25
8 0 15 -9 15 -20 0 -22 -20 -26 -37 -9 -25 25 -43 2 -43 -56 0 -75 18 -114 79
-166 42 -36 52 -51 57 -86 5 -34 15 -51 50 -81 23 -21 46 -50 49 -65 4 -15 11
-30 16 -33 20 -12 7 -43 -26 -63 -20 -11 -50 -43 -67 -71 -17 -27 -35 -50 -39
-50 -5 0 -9 -13 -9 -30 0 -20 -5 -30 -15 -30 -12 0 -15 -14 -15 -70 0 -63 -2
-70 -20 -70 -17 0 -20 -7 -20 -39 0 -33 -4 -40 -22 -43 -19 -2 -24 -10 -26
-46 l-3 -42 323 2 323 3 0 40 c0 34 -3 40 -22 43 -19 3 -23 10 -23 43 0 32 -3
39 -20 39 -18 0 -20 7 -20 70 0 56 -3 70 -15 70 -10 0 -15 10 -15 30 0 17 -4
30 -8 30 -5 0 -23 22 -41 49 -17 28 -47 59 -66 71 -35 22 -48 61 -25 75 6 3
10 17 10 30 0 14 7 26 18 29 36 12 74 63 83 112 5 27 16 52 24 56 69 39 115
113 115 188 0 63 -11 78 -45 60 -20 -11 -28 -11 -38 -1 -9 10 -8 15 6 25 9 7
17 21 17 30 0 18 -23 46 -37 46 -5 0 -20 14 -32 31 -13 17 -43 40 -67 51 -24
10 -44 23 -44 28 0 6 -11 10 -25 10 l-24 0 24 25 c25 25 29 42 19 83 -8 30
-24 28 -24 -4 0 -38 -18 -64 -45 -64 -27 0 -36 10 -50 60 -9 29 -12 32 -18 17z
m-139 -470 c8 -38 11 -72 7 -75 -4 -4 -20 8 -36 26 -23 26 -29 42 -29 78 0 41
2 45 23 42 19 -3 24 -13 35 -71z m472 38 c0 -44 -23 -90 -51 -106 -21 -11 -21
-10 -14 47 9 72 20 94 45 94 16 0 20 -7 20 -35z"/>
<path d="M4575 1251 c-105 -49 -152 -166 -106 -266 20 -46 79 -102 116 -111
14 -3 25 -12 25 -20 0 -8 5 -14 10 -14 15 0 12 -27 -4 -33 -8 -3 -16 -21 -18
-38 l-3 -33 -36 32 c-20 18 -39 32 -43 32 -3 0 -6 -110 -6 -245 l0 -245 -85 0
-85 0 0 -90 0 -90 -35 0 -35 0 0 -65 0 -65 380 0 380 0 0 64 0 65 -32 3 -33 3
-3 87 -3 87 -82 3 -82 3 -3 243 -2 243 -38 -31 -37 -31 -3 36 c-2 22 -8 35
-18 35 -8 0 -14 7 -14 15 0 8 5 15 10 15 6 0 10 6 10 13 0 7 15 19 34 25 64
24 126 115 126 187 0 142 -158 245 -285 186z m25 -891 c0 -36 -2 -40 -25 -40
-14 0 -25 2 -25 4 0 8 42 76 46 76 2 0 4 -18 4 -40z m139 -4 c27 -43 26 -46
-4 -46 -22 0 -25 4 -25 40 0 22 2 40 4 40 2 0 14 -15 25 -34z"/>
<path d="M5667 1260 c-47 -15 -94 -57 -117 -105 -47 -98 -8 -221 87 -271 65
-34 96 -74 58 -74 -11 0 -15 -11 -15 -41 l0 -41 -42 38 -43 38 -3 -247 -2
-247 -85 0 -85 0 0 -90 0 -90 -35 0 -35 0 0 -65 0 -65 380 0 380 0 0 65 0 65
-35 0 -35 0 0 90 0 90 -85 0 -85 0 -2 245 -3 246 -35 -30 c-19 -17 -38 -30
-42 -31 -5 0 -8 16 -8 35 0 19 -4 35 -10 35 -5 0 -10 7 -10 15 0 8 5 15 10 15
6 0 10 6 10 14 0 8 10 18 23 21 75 23 127 102 127 192 0 108 -75 190 -181 198
-29 3 -67 0 -82 -5z m10 -937 c-3 -2 -17 -3 -31 -1 l-26 3 27 40 28 40 3 -39
c2 -21 1 -40 -1 -43z m148 15 l17 -28 -31 0 c-30 0 -31 1 -31 47 0 52 -2 52
45 -19z"/>
<path d="M2665 1018 c-60 -33 -76 -123 -30 -172 14 -15 22 -32 19 -38 -4 -6
-15 3 -26 21 -11 17 -28 31 -38 31 -23 0 -35 -16 -19 -26 6 -3 20 -27 32 -52
29 -67 37 -293 12 -377 -9 -33 -23 -68 -31 -79 -8 -11 -14 -28 -14 -38 0 -15
-9 -18 -45 -18 l-45 0 0 -80 c0 -64 -3 -80 -15 -80 -10 0 -15 -10 -15 -34 0
-28 6 -38 34 -55 31 -19 48 -21 231 -21 l198 0 43 28 c49 30 61 70 24 79 -18
5 -20 14 -20 84 l0 79 -50 0 c-44 0 -50 3 -50 20 0 12 -9 39 -20 60 -32 63
-44 181 -30 306 11 107 19 133 47 166 8 9 12 22 8 27 -11 19 -35 12 -53 -17
-9 -16 -23 -27 -30 -24 -8 2 -3 15 18 38 44 50 42 104 -4 150 -27 27 -42 34
-72 34 -22 0 -48 -6 -59 -12z"/>
</g>
</svg>
